# xmcd
#
# Track frame offsets:
#	150
#	16321
#	30544
#	42852
#	62766
#	74236
#	87510
#	101460
#	119224
#
# Disc length: 1751 seconds
#
# Revision: 1
# Processed by: cddbd v1.5.2PL0 Copyright (c) Steve Scherf et al.
# Submitted via: audiograbber 1.83.01
#
DISCID=7f06d509
DTITLE=Mick Lail - Crazy Over You
DYEAR=1996
DGENRE=Country
TTITLE0=Crazy Over You
TTITLE1=Hidden Emotions
TTITLE2=Honey
TTITLE3=It's Over
TTITLE4=Lifetime Lover
TTITLE5=Lucky One
TTITLE6=Sarah
TTITLE7=Secret Hideaway
TTITLE8=The Prayer
EXTD=All songs by Mick Lail except Hidden Emotions which was \nco-written with 
EXTD=Nathan Helms.
EXTT0=
EXTT1=
EXTT2=
EXTT3=
EXTT4=
EXTT5=
EXTT6=
EXTT7=
EXTT8=
PLAYORDER=
